<?xml version="1.0" encoding="UTF-8"?>
<!-- Do not edit this file with editors other than diagrams.net -->
<!DOCTYPE svg PUBLIC "-//W3C//DTD SVG 1.1//EN" "http://www.w3.org/Graphics/SVG/1.1/DTD/svg11.dtd">
<svg xmlns="http://www.w3.org/2000/svg" xmlns:xlink="http://www.w3.org/1999/xlink" version="1.1" width="806px" height="481px" viewBox="-0.5 -0.5 806 481"><defs/><g><rect x="243" y="0" width="320" height="80" fill="#539796" stroke="none" pointer-events="all"/><rect x="243" y="400" width="320" height="80" fill="#539796" stroke="none" pointer-events="all"/><rect x="273" y="80" width="260" height="320" fill="#b18aea" stroke="none" pointer-events="all"/><path d="M 243 440 Q 203 320 203 240 Q 203 160 243 40" fill="none" stroke="#b18aea" stroke-width="6" stroke-miterlimit="10" pointer-events="stroke"/><path d="M 243 440 Q 123 340 123 240 Q 123 140 243 40" fill="none" stroke="#b18aea" stroke-width="6" stroke-miterlimit="10" pointer-events="stroke"/><path d="M 243 440 Q 43 360 43 240 Q 43 120 243 40" fill="none" stroke="#b18aea" stroke-width="6" stroke-miterlimit="10" pointer-events="stroke"/><path d="M 243 440 Q 83 350 83 240 Q 83 130 243 40" fill="none" stroke="#b18aea" stroke-width="6" stroke-miterlimit="10" pointer-events="stroke"/><path d="M 243 440 Q 163 330 163 240 Q 163 150 243 40" fill="none" stroke="#b18aea" stroke-width="6" stroke-miterlimit="10" pointer-events="stroke"/><path d="M 243 440 Q 3 370 3 240 Q 3 110 243 40" fill="none" stroke="#b18aea" stroke-width="6" stroke-miterlimit="10" pointer-events="stroke"/><path d="M 563 440 Q 803 370 803 240 Q 803 110 563 40" fill="none" stroke="#b18aea" stroke-width="6" stroke-miterlimit="10" pointer-events="stroke"/><path d="M 563 440 Q 723 350 723 240 Q 723 130 563 40" fill="none" stroke="#b18aea" stroke-width="6" stroke-miterlimit="10" pointer-events="stroke"/><path d="M 563 440 Q 643 330 643 240 Q 643 150 563 40" fill="none" stroke="#b18aea" stroke-width="6" stroke-miterlimit="10" pointer-events="stroke"/><path d="M 563 440 Q 683 340 683 240 Q 683 140 563 40" fill="none" stroke="#b18aea" stroke-width="6" stroke-miterlimit="10" pointer-events="stroke"/><path d="M 563 440 Q 763 360 763 240 Q 763 120 563 40" fill="none" stroke="#b18aea" stroke-width="6" stroke-miterlimit="10" pointer-events="stroke"/><path d="M 563 440 Q 603 320 603 240 Q 603 160 563 40" fill="none" stroke="#b18aea" stroke-width="6" stroke-miterlimit="10" pointer-events="stroke"/></g></svg>